{"accessors":[{"bufferView":0,"byteOffset":0,"componentType":5126,"count":7,"max":[0.079,0.013000000000000001,-0.0115],"min":[0.0616457513110646,0.011267899999999999,-0.0145],"type":"VEC3"},{"bufferView":0,"byteOffset":84,"componentType":5126,"count":10,"max":[0.0563542486889354,0.013000000000000001,-0.0085],"min":[0.00764575131106459,0.011267899999999999,-0.0115],"type":"VEC3"},{"bufferView":0,"byteOffset":204,"componentType":5126,"count":7,"max":[0.079,0.013000000000000001,0.0115],"min":[0.0616457513110646,0.011267899999999999,0.0085],"type":"VEC3"},{"bufferView":0,"byteOffset":288,"componentType":5126,"count":10,"max":[0.0563542486889354,0.013000000000000001,0.0145],"min":[0.00764575131106459,0.011267899999999999,0.0115],"type":"VEC3"},{"bufferView":0,"byteOffset":408,"componentType":5126,"count":10,"max":[0.0563542486889354,0.013000000000000001,0.0115],"min":[0.0076457513110646,0.011267899999999999,0.0085],"type":"VEC3"},{"bufferView":0,"byteOffset":528,"componentType":5126,"count":7,"max":[0.00235424868893541,0.013000000000000001,0.0145],"min":[0.0,0.011267899999999999,0.0115],"type":"VEC3"},{"bufferView":0,"byteOffset":612,"componentType":5126,"count":10,"max":[0.0563542486889354,0.013000000000000001,-0.0115],"min":[0.0076457513110646,0.011267899999999999,-0.0145],"type":"VEC3"},{"bufferView":0,"byteOffset":732,"componentType":5126,"count":7,"max":[0.00235424868893541,0.013000000000000001,-0.0085],"min":[0.0,0.011267899999999999,-0.0115],"type":"VEC3"},{"bufferView":0,"byteOffset":816,"componentType":5126,"count":4,"max":[0.079,0.013000000000000001,0.006500000000000001],"min":[0.0,0.0126,0.0060999999999999995],"type":"VEC3"},{"bufferView":0,"byteOffset":864,"componentType":5126,"count":18,"max":[0.079,0.013000000000000001,0.008500000000000011],"min":[0.0,0.013000000000000001,0.006500000000000001],"type":"VEC3"},{"bufferView":0,"byteOffset":1080,"componentType":5126,"count":7,"max":[0.0023542486889353994,0.013000000000000001,0.0115],"min":[0.0,0.011267899999999999,0.0085],"type":"VEC3"},{"bufferView":0,"byteOffset":1164,"componentType":5126,"count":7,"max":[0.079,0.013000000000000001,0.0145],"min":[0.0616457513110646,0.011267899999999999,0.0115],"type":"VEC3"},{"bufferView":0,"byteOffset":1248,"componentType":5126,"count":70,"max":[0.079,0.013000000000000001,0.029],"min":[0.0,0.013000000000000001,0.0145],"type":"VEC3"},{"bufferView":0,"byteOffset":2088,"componentType":5126,"count":56,"max":[0.079,0.013000000000000001,0.029],"min":[0.0,0.00425,0.029],"type":"VEC3"},{"bufferView":0,"byteOffset":2760,"componentType":5126,"count":4,"max":[0.079,0.00425,0.029],"min":[0.0,0.003525,0.028274999999999998],"type":"VEC3"},{"bufferView":0,"byteOffset":2808,"componentType":5126,"count":4,"max":[0.079,0.003525,0.028274999999999998],"min":[0.0,-0.00494166666666666,0.028274999999999998],"type":"VEC3"},{"bufferView":0,"byteOffset":2856,"componentType":5126,"count":4,"max":[0.079,-0.00494166666666666,0.029],"min":[0.0,-0.00566666666666667,0.028274999999999998],"type":"VEC3"},{"bufferView":0,"byteOffset":2904,"componentType":5126,"count":4,"max":[0.079,-0.00566666666666667,0.029],"min":[0.0,-0.013000000000000001,0.029],"type":"VEC3"},{"bufferView":0,"byteOffset":2952,"componentType":5126,"count":56,"max":[0.079,-0.013000000000000001,0.029],"min":[0.0,-0.013000000000000001,0.0211739130434783],"type":"VEC3"},{"bufferView":0,"byteOffset":3624,"componentType":5126,"count":4,"max":[0.079,-0.0125,0.0211739130434783],"min":[0.0,-0.013000000000000001,0.0211739130434783],"type":"VEC3"},{"bufferView":0,"byteOffset":3672,"componentType":5126,"count":4,"max":[0.079,-0.0125,0.0211739130434783],"min":[0.0,-0.0125,0.018600000000000002],"type":"VEC3"},{"bufferView":0,"byteOffset":3720,"componentType":5126,"count":4,"max":[0.079,-0.0107666666666667,0.018600000000000002],"min":[0.0,-0.0125,0.0166666666666667],"type":"VEC3"},{"bufferView":0,"byteOffset":3768,"componentType":5126,"count":4,"max":[0.079,-0.0107666666666667,0.0166666666666667],"min":[0.0,-0.013000000000000001,0.014175641025640999],"type":"VEC3"},{"bufferView":0,"byteOffset":3816,"componentType":5126,"count":56,"max":[0.079,-0.013000000000000001,0.014175641025640999],"min":[0.0,-0.013000000000000001,0.00822268196514409],"type":"VEC3"},{"bufferView":0,"byteOffset":4488,"componentType":5126,"count":4,"max":[0.079,-0.0114705882352941,0.00822268196514409],"min":[0.0,-0.013000000000000001,0.00639999999999999],"type":"VEC3"},{"bufferView":0,"byteOffset":4536,"componentType":5126,"count":4,"max":[0.079,-0.0114705882352941,0.00639999999999999],"min":[0.0,-0.0114705882352941,0.00493333333333333],"type":"VEC3"},{"bufferView":0,"byteOffset":4584,"componentType":5126,"count":8,"max":[0.079,-0.0109420168067227,0.00543333333333333],"min":[0.0,-0.0114705882352941,0.00493333333333333],"type":"VEC3"},{"bufferView":0,"byteOffset":4680,"componentType":5126,"count":4,"max":[0.079,-0.00797058823529412,0.00543333333333333],"min":[0.0,-0.0109420168067227,0.00543333333333333],"type":"VEC3"},{"bufferView":0,"byteOffset":4728,"componentType":5126,"count":16,"max":[0.079,-0.00647058823529412,0.00543333333333333],"min":[0.0,-0.00797058823529412,0.00393333333333333],"type":"VEC3"},{"bufferView":0,"byteOffset":4920,"componentType":5126,"count":4,"max":[0.079,-0.00647058823529412,0.00393333333333333],"min":[0.0,-0.00647058823529412,0.00273333333333333],"type":"VEC3"},{"bufferView":0,"byteOffset":4968,"componentType":5126,"count":16,"max":[0.079,-0.00647058823529412,0.00273333333333333],"min":[0.0,-0.00797058823529412,0.00123333333333333],"type":"VEC3"},{"bufferView":0,"byteOffset":5160,"componentType":5126,"count":4,"max":[0.079,-0.00797058823529412,0.00123333333333333],"min":[0.0,-0.0109420168067227,0.00123333333333333],"type":"VEC3"},{"bufferView":0,"byteOffset":5208,"componentType":5126,"count":8,"max":[0.079,-0.0109420168067227,0.00173333333333333],"min":[0.0,-0.0114705882352941,0.00123333333333333],"type":"VEC3"},{"bufferView":0,"byteOffset":5304,"componentType":5126,"count":4,"max":[0.079,-0.0114705882352941,0.00173333333333333],"min":[0.0,-0.0114705882352941,-0.00173333333333333],"type":"VEC3"},{"bufferView":0,"byteOffset":5352,"componentType":5126,"count":8,"max":[0.079,-0.0109420168067227,-0.00123333333333333],"min":[0.0,-0.0114705882352941,-0.00173333333333333],"type":"VEC3"},{"bufferView":0,"byteOffset":5448,"componentType":5126,"count":4,"max":[0.079,-0.00797058823529412,-0.00123333333333333],"min":[0.0,-0.0109420168067227,-0.00123333333333333],"type":"VEC3"},{"bufferView":0,"byteOffset":5496,"componentType":5126,"count":16,"max":[0.079,-0.00647058823529412,-0.00123333333333333],"min":[0.0,-0.00797058823529412,-0.00273333333333333],"type":"VEC3"},{"bufferView":0,"byteOffset":5688,"componentType":5126,"count":4,"max":[0.079,-0.00647058823529412,-0.00273333333333333],"min":[0.0,-0.00647058823529412,-0.00393333333333333],"type":"VEC3"},{"bufferView":0,"byteOffset":5736,"componentType":5126,"count":16,"max":[0.079,-0.00647058823529412,-0.00393333333333333],"min":[0.0,-0.00797058823529412,-0.00543333333333333],"type":"VEC3"},{"bufferView":0,"byteOffset":5928,"componentType":5126,"count":4,"max":[0.079,-0.00797058823529412,-0.00543333333333333],"min":[0.0,-0.0109420168067227,-0.00543333333333333],"type":"VEC3"},{"bufferView":0,"byteOffset":5976,"componentType":5126,"count":8,"max":[0.079,-0.0109420168067227,-0.00493333333333334],"min":[0.0,-0.0114705882352941,-0.00543333333333333],"type":"VEC3"},{"bufferView":0,"byteOffset":6072,"componentType":5126,"count":4,"max":[0.079,-0.0114705882352941,-0.00493333333333334],"min":[0.0,-0.0114705882352941,-0.0064],"type":"VEC3"},{"bufferView":0,"byteOffset":6120,"componentType":5126,"count":4,"max":[0.079,-0.0114705882352941,-0.0064],"min":[0.0,-0.013000000000000001,-0.00822268196514408],"type":"VEC3"},{"bufferView":0,"byteOffset":6168,"componentType":5126,"count":56,"max":[0.079,-0.013000000000000001,-0.00822268196514408],"min":[0.0,-0.013000000000000001,-0.014175641025640999],"type":"VEC3"},{"bufferView":0,"byteOffset":6840,"componentType":5126,"count":4,"max":[0.079,-0.0107666666666667,-0.014175641025640999],"min":[0.0,-0.013000000000000001,-0.0166666666666667],"type":"VEC3"},{"bufferView":0,"byteOffset":6888,"componentType":5126,"count":4,"max":[0.079,-0.0107666666666667,-0.0166666666666667],"min":[0.0,-0.0125,-0.018600000000000002],"type":"VEC3"},{"bufferView":0,"byteOffset":6936,"componentType":5126,"count":4,"max":[0.079,-0.0125,-0.018600000000000002],"min":[0.0,-0.0125,-0.0211739130434783],"type":"VEC3"},{"bufferView":0,"byteOffset":6984,"componentType":5126,"count":4,"max":[0.079,-0.0125,-0.0211739130434783],"min":[0.0,-0.013000000000000001,-0.0211739130434783],"type":"VEC3"},{"bufferView":0,"byteOffset":7032,"componentType":5126,"count":56,"max":[0.079,-0.013000000000000001,-0.0211739130434783],"min":[0.0,-0.013000000000000001,-0.029],"type":"VEC3"},{"bufferView":0,"byteOffset":7704,"componentType":5126,"count":4,"max":[0.079,-0.00566666666666667,-0.029],"min":[0.0,-0.013000000000000001,-0.029],"type":"VEC3"},{"bufferView":0,"byteOffset":7752,"componentType":5126,"count":4,"max":[0.079,-0.00494166666666667,-0.028274999999999998],"min":[0.0,-0.00566666666666667,-0.029],"type":"VEC3"},{"bufferView":0,"byteOffset":7800,"componentType":5126,"count":4,"max":[0.079,0.0035249999999999904,-0.028274999999999998],"min":[0.0,-0.00494166666666667,-0.028274999999999998],"type":"VEC3"},{"bufferView":0,"byteOffset":7848,"componentType":5126,"count":4,"max":[0.079,0.00425,-0.028274999999999998],"min":[0.0,0.0035249999999999904,-0.029],"type":"VEC3"},{"bufferView":0,"byteOffset":7896,"componentType":5126,"count":4,"max":[0.079,0.013000000000000001,-0.029],"min":[0.0,0.00425,-0.029],"type":"VEC3"},{"bufferView":0,"byteOffset":7944,"componentType":5126,"count":18,"max":[0.079,0.013000000000000001,-0.0145],"min":[0.0,0.013000000000000001,-0.029],"type":"VEC3"},{"bufferView":0,"byteOffset":8160,"componentType":5126,"count":7,"max":[0.0023542486889353994,0.013000000000000001,-0.0115],"min":[0.0,0.011267899999999999,-0.0145],"type":"VEC3"},{"bufferView":0,"byteOffset":8244,"componentType":5126,"count":7,"max":[0.079,0.013000000000000001,-0.0085],"min":[0.0616457513110646,0.011267899999999999,-0.0115],"type":"VEC3"},{"bufferView":0,"byteOffset":8328,"componentType":5126,"count":18,"max":[0.079,0.013000000000000001,-0.006500000000000001],"min":[0.0,0.013000000000000001,-0.0085],"type":"VEC3"},{"bufferView":0,"byteOffset":8544,"componentType":5126,"count":4,"max":[0.079,0.013000000000000001,-0.0060999999999999995],"min":[0.0,0.0126,-0.006500000000000001],"type":"VEC3"},{"bufferView":0,"byteOffset":8592,"componentType":5126,"count":4,"max":[0.079,0.0126,-0.004940000000000001],"min":[0.0,0.0126,-0.0060999999999999995],"type":"VEC3"},{"bufferView":0,"byteOffset":8640,"componentType":5126,"count":8,"max":[0.079,0.0126,-0.004940000000000001],"min":[0.0,0.0120714285714286,-0.00544],"type":"VEC3"},{"bufferView":0,"byteOffset":8736,"componentType":5126,"count":4,"max":[0.079,0.0120714285714286,-0.00544],"min":[0.0,0.0091,-0.00544],"type":"VEC3"},{"bufferView":0,"byteOffset":8784,"componentType":5126,"count":16,"max":[0.079,0.0091,-0.00394],"min":[0.0,0.0076,-0.00544],"type":"VEC3"},{"bufferView":0,"byteOffset":8976,"componentType":5126,"count":4,"max":[0.079,0.0076,-0.0027400000000000002],"min":[0.0,0.0076,-0.00394],"type":"VEC3"},{"bufferView":0,"byteOffset":9024,"componentType":5126,"count":16,"max":[0.079,0.0091,-0.00124],"min":[0.0,0.0076,-0.0027400000000000002],"type":"VEC3"},{"bufferView":0,"byteOffset":9216,"componentType":5126,"count":4,"max":[0.079,0.0120714285714286,-0.00124],"min":[0.0,0.0091,-0.00124],"type":"VEC3"},{"bufferView":0,"byteOffset":9264,"componentType":5126,"count":8,"max":[0.079,0.0126,-0.00124],"min":[0.0,0.0120714285714286,-0.00174],"type":"VEC3"},{"bufferView":0,"byteOffset":9360,"componentType":5126,"count":4,"max":[0.079,0.0126,0.00172666666666667],"min":[0.0,0.0126,-0.00174],"type":"VEC3"},{"bufferView":0,"byteOffset":9408,"componentType":5126,"count":8,"max":[0.079,0.0126,0.00172666666666667],"min":[0.0,0.0120714285714286,0.00122666666666666],"type":"VEC3"},{"bufferView":0,"byteOffset":9504,"componentType":5126,"count":4,"max":[0.079,0.0120714285714286,0.00122666666666666],"min":[0.0,0.0091,0.00122666666666666],"type":"VEC3"},{"bufferView":0,"byteOffset":9552,"componentType":5126,"count":16,"max":[0.079,0.0091,0.00272666666666666],"min":[0.0,0.0076,0.00122666666666666],"type":"VEC3"},{"bufferView":0,"byteOffset":9744,"componentType":5126,"count":4,"max":[0.079,0.0076,0.00392666666666667],"min":[0.0,0.0076,0.00272666666666666],"type":"VEC3"},{"bufferView":0,"byteOffset":9792,"componentType":5126,"count":16,"max":[0.079,0.0091,0.005426666666666671],"min":[0.0,0.0076,0.00392666666666667],"type":"VEC3"},{"bufferView":0,"byteOffset":9984,"componentType":5126,"count":4,"max":[0.079,0.0120714285714286,0.005426666666666671],"min":[0.0,0.0091,0.005426666666666671],"type":"VEC3"},{"bufferView":0,"byteOffset":10032,"componentType":5126,"count":8,"max":[0.079,0.0126,0.005426666666666671],"min":[0.0,0.0120714285714286,0.00492666666666666],"type":"VEC3"},{"bufferView":0,"byteOffset":10128,"componentType":5126,"count":4,"max":[0.079,0.0126,0.0060999999999999995],"min":[0.0,0.0126,0.00492666666666666],"type":"VEC3"},{"bufferView":0,"byteOffset":10176,"componentType":5126,"count":314,"max":[0.079,0.013000000000000001,0.029],"min":[0.079,-0.013000000000000001,-0.029],"type":"VEC3"},{"bufferView":0,"byteOffset":13944,"componentType":5126,"count":210,"max":[0.0,0.013000000000000001,0.029],"min":[0.0,-0.013000000000000001,-0.029],"type":"VEC3"},{"bufferView":0,"byteOffset":16464,"componentType":5126,"count":54,"max":[0.0005,0.0036000000000000003,-0.017176248053247006],"min":[0.0,-0.0036000000000000003,-0.024323751946752997],"type":"VEC3"},{"bufferView":0,"byteOffset":17112,"componentType":5126,"count":54,"max":[0.0785,0.0031000000000000003,-0.017672602490296032],"min":[0.0005,-0.0031000000000000003,-0.023827397509703967],"type":"VEC3"},{"bufferView":0,"byteOffset":17760,"componentType":5126,"count":54,"max":[0.079,0.0036000000000000003,-0.017176248053247006],"min":[0.0785,-0.0036000000000000003,-0.024323751946752997],"type":"VEC3"},{"bufferView":0,"byteOffset":18408,"componentType":5126,"count":54,"max":[0.0005,0.0036000000000000003,0.024323751946752997],"min":[0.0,-0.0036000000000000003,0.017176248053247006],"type":"VEC3"},{"bufferView":0,"byteOffset":19056,"componentType":5126,"count":54,"max":[0.0785,0.0031000000000000003,0.023827397509703967],"min":[0.0005,-0.0031000000000000003,0.017672602490296032],"type":"VEC3"},{"bufferView":0,"byteOffset":19704,"componentType":5126,"count":54,"max":[0.079,0.0036000000000000003,0.024323751946752997],"min":[0.0785,-0.0036000000000000003,0.017176248053247006],"type":"VEC3"},{"bufferView":0,"byteOffset":20352,"componentType":5126,"count":54,"max":[0.014,-0.012621,-0.023014582251803892],"min":[0.01,-0.013000000000000001,-0.02698541774819611],"type":"VEC3"},{"bufferView":0,"byteOffset":21000,"componentType":5126,"count":54,"max":[0.013621000000000003,-0.0048358847863563805,-0.023390818915087052],"min":[0.010378999999999998,-0.012621,-0.026609181084912947],"type":"VEC3"},{"bufferView":0,"byteOffset":21648,"componentType":5126,"count":57,"max":[0.013621000000000003,-0.0039,-0.023390818915087052],"min":[0.010378999999999998,-0.0048358847863563805,-0.026609181084912947],"type":"VEC3"},{"bufferView":0,"byteOffset":22332,"componentType":5126,"count":54,"max":[0.069,-0.012621,-0.023014582251803892],"min":[0.065,-0.013000000000000001,-0.02698541774819611],"type":"VEC3"},{"bufferView":0,"byteOffset":22980,"componentType":5126,"count":54,"max":[0.068621,-0.004835884786356379,-0.023390818915087052],"min":[0.065379,-0.012621,-0.026609181084912947],"type":"VEC3"},{"bufferView":0,"byteOffset":23628,"componentType":5126,"count":57,"max":[0.068621,-0.0039,-0.023390818915087052],"min":[0.065379,-0.0048358847863563805,-0.026609181084912947],"type":"VEC3"},{"bufferView":0,"byteOffset":24312,"componentType":5126,"count":54,"max":[0.014,-0.012621,0.02698541774819611],"min":[0.01,-0.013000000000000001,0.023014582251803892],"type":"VEC3"},{"bufferView":0,"byteOffset":24960,"componentType":5126,"count":54,"max":[0.013621000000000003,-0.0048358847863563805,0.026609181084912947],"min":[0.010378999999999998,-0.012621,0.023390818915087052],"type":"VEC3"},{"bufferView":0,"byteOffset":25608,"componentType":5126,"count":57,"max":[0.013621000000000003,-0.0039,0.026609181084912947],"min":[0.010378999999999998,-0.0048358847863563805,0.023390818915087052],"type":"VEC3"},{"bufferView":0,"byteOffset":26292,"componentType":5126,"count":54,"max":[0.069,-0.012621,0.02698541774819611],"min":[0.065,-0.013000000000000001,0.023014582251803892],"type":"VEC3"},{"bufferView":0,"byteOffset":26940,"componentType":5126,"count":54,"max":[0.068621,-0.004835884786356379,0.026609181084912947],"min":[0.065379,-0.012621,0.023390818915087052],"type":"VEC3"},{"bufferView":0,"byteOffset":27588,"componentType":5126,"count":57,"max":[0.068621,-0.0039,0.026609181084912947],"min":[0.065379,-0.0048358847863563805,0.023390818915087052],"type":"VEC3"},{"bufferView":0,"byteOffset":28272,"componentType":5126,"count":26,"max":[0.013067,0.00725,0.02155192924276068],"min":[0.008933,0.00725,0.017448070757239323],"type":"VEC3"},{"bufferView":0,"byteOffset":28584,"componentType":5126,"count":54,"max":[0.013067,0.012567,0.02155192924276068],"min":[0.008933,0.00725,0.017448070757239323],"type":"VEC3"},{"bufferView":0,"byteOffset":29232,"componentType":5126,"count":54,"max":[0.0135,0.013000000000000001,0.021981772185245135],"min":[0.0085,0.012567,0.017018227814754865],"type":"VEC3"},{"bufferView":0,"byteOffset":29880,"componentType":5126,"count":26,"max":[0.066067,0.00725,0.021551929242760667],"min":[0.06193300000000001,0.00725,0.017448070757239333],"type":"VEC3"},{"bufferView":0,"byteOffset":30192,"componentType":5126,"count":54,"max":[0.066067,0.012567,0.021551929242760667],"min":[0.06193300000000001,0.00725,0.017448070757239333],"type":"VEC3"},{"bufferView":0,"byteOffset":30840,"componentType":5126,"count":54,"max":[0.0665,0.013000000000000001,0.021981772185245135],"min":[0.0615,0.012567,0.017018227814754865],"type":"VEC3"},{"bufferView":0,"byteOffset":31488,"componentType":5126,"count":54,"max":[0.05,0.0031000000000000003,0.003077397509703968],"min":[0.0,-0.0031000000000000003,-0.0030773975097039673],"type":"VEC3"},{"bufferView":0,"byteOffset":32136,"componentType":5126,"count":26,"max":[0.05,0.0031000000000000003,0.003077397509703968],"min":[0.05,-0.0031000000000000003,-0.0030773975097039673],"type":"VEC3"},{"bufferView":0,"byteOffset":32448,"componentType":5126,"count":26,"max":[0.013051929242760678,0.010567,0.023],"min":[0.008948070757239322,0.006433,0.023],"type":"VEC3"},{"bufferView":0,"byteOffset":32760,"componentType":5126,"count":54,"max":[0.013051929242760678,0.010567,0.028567000000000002],"min":[0.008948070757239322,0.006433,0.023],"type":"VEC3"},{"bufferView":0,"byteOffset":33408,"componentType":5126,"count":54,"max":[0.013481772185245135,0.011,0.029],"min":[0.008518227814754866,0.006,0.028567000000000002],"type":"VEC3"},{"bufferView":0,"byteOffset":34056,"componentType":5126,"count":26,"max":[0.06605192924276068,0.010567,0.023],"min":[0.06194807075723932,0.006433,0.023],"type":"VEC3"},{"bufferView":0,"byteOffset":34368,"componentType":5126,"count":54,"max":[0.06605192924276068,0.010567,0.028567000000000002],"min":[0.06194807075723932,0.006433,0.023],"type":"VEC3"},{"bufferView":0,"byteOffset":35016,"componentType":5126,"count":54,"max":[0.06648177218524513,0.011,0.029],"min":[0.06151822781475487,0.006,0.028567000000000002],"type":"VEC3"},{"bufferView":0,"byteOffset":35664,"componentType":5126,"count":57,"max":[0.07100000000000001,0.0025,0.002481772185245136],"min":[0.0695566243270259,-0.0025,-0.0024817721852451353],"type":"VEC3"},{"bufferView":0,"byteOffset":36348,"componentType":5126,"count":54,"max":[0.079,0.0025,0.002481772185245136],"min":[0.07100000000000001,-0.0025,-0.0024817721852451353],"type":"VEC3"},{"bufferView":0,"byteOffset":36996,"componentType":5126,"count":57,"max":[0.06820000000000001,-0.007379,-0.018390818915087054],"min":[0.0672641152136436,-0.010621,-0.021609181084912946],"type":"VEC3"},{"bufferView":0,"byteOffset":37680,"componentType":5126,"count":54,"max":[0.078621,-0.007379,-0.018390818915087054],"min":[0.06820000000000001,-0.010621,-0.021609181084912946],"type":"VEC3"},{"bufferView":0,"byteOffset":38328,"componentType":5126,"count":54,"max":[0.079,-0.007,-0.01801458225180389],"min":[0.078621,-0.011,-0.02198541774819611],"type":"VEC3"},{"bufferView":0,"byteOffset":38976,"componentType":5126,"count":57,"max":[0.06820000000000001,-0.007379,0.021609181084912946],"min":[0.0672641152136436,-0.010621,0.018390818915087054],"type":"VEC3"},{"bufferView":0,"byteOffset":39660,"componentType":5126,"count":54,"max":[0.078621,-0.007379,0.021609181084912946],"min":[0.06820000000000001,-0.010621,0.018390818915087054],"type":"VEC3"},{"bufferView":0,"byteOffset":40308,"componentType":5126,"count":54,"max":[0.079,-0.007,0.02198541774819611],"min":[0.078621,-0.011,0.01801458225180389],"type":"VEC3"},{"bufferView":0,"byteOffset":40956,"componentType":5126,"count":57,"max":[0.06820000000000001,0.010621,-0.018390818915087054],"min":[0.0672641152136436,0.007379,-0.021609181084912946],"type":"VEC3"},{"bufferView":0,"byteOffset":41640,"componentType":5126,"count":54,"max":[0.078621,0.010621,-0.018390818915087054],"min":[0.06820000000000001,0.007379,-0.021609181084912946],"type":"VEC3"},{"bufferView":0,"byteOffset":42288,"componentType":5126,"count":54,"max":[0.079,0.011,-0.01801458225180389],"min":[0.078621,0.007,-0.02198541774819611],"type":"VEC3"},{"bufferView":0,"byteOffset":42936,"componentType":5126,"count":57,"max":[0.06820000000000001,0.010621,0.021609181084912946],"min":[0.0672641152136436,0.007379,0.018390818915087054],"type":"VEC3"},{"bufferView":0,"byteOffset":43620,"componentType":5126,"count":54,"max":[0.078621,0.010621,0.021609181084912946],"min":[0.06820000000000001,0.007379,0.018390818915087054],"type":"VEC3"},{"bufferView":0,"byteOffset":44268,"componentType":5126,"count":54,"max":[0.079,0.011,0.02198541774819611],"min":[0.078621,0.007,0.01801458225180389],"type":"VEC3"},{"bufferView":0,"byteOffset":44916,"componentType":5126,"count":56,"max":[0.009000000000000022,0.013000000000000001,-0.0075],"min":[0.001,0.0085,-0.0155],"type":"VEC3"},{"bufferView":0,"byteOffset":45588,"componentType":5126,"count":52,"max":[0.009000000000000001,0.0085,-0.007529164503607783],"min":[0.001,0.0085,-0.015470835496392216],"type":"VEC3"},{"bufferView":0,"byteOffset":46212,"componentType":5126,"count":54,"max":[0.007149999999999998,0.0085,-0.009365675920689183],"min":[0.0028499999999999997,-0.00239378221735089,-0.013634324079310815],"type":"VEC3"},{"bufferView":0,"byteOffset":46860,"componentType":5126,"count":52,"max":[0.007149999999999998,-0.00239378221735089,-0.009365675920689183],"min":[0.0028499999999999997,-0.00239378221735089,-0.013634324079310815],"type":"VEC3"},{"bufferView":0,"byteOffset":47484,"componentType":5126,"count":54,"max":[0.007067,-0.00239378221735089,-0.009448070757239321],"min":[0.002933,-0.012567,-0.013551929242760679],"type":"VEC3"},{"bufferView":0,"byteOffset":48132,"componentType":5126,"count":54,"max":[0.0075,-0.012567,-0.009018227814754864],"min":[0.0025,-0.013000000000000001,-0.013981772185245135],"type":"VEC3"},{"bufferView":0,"byteOffset":48780,"componentType":5126,"count":56,"max":[0.009000000000000011,0.013000000000000001,0.0155],"min":[0.001,0.0085,0.0075],"type":"VEC3"},{"bufferView":0,"byteOffset":49452,"componentType":5126,"count":52,"max":[0.009000000000000001,0.0085,0.015470835496392218],"min":[0.001,0.0085,0.0075291645036077845],"type":"VEC3"},{"bufferView":0,"byteOffset":50076,"componentType":5126,"count":54,"max":[0.007149999999999998,0.0085,0.013634324079310816],"min":[0.0028499999999999997,-0.00239378221735089,0.009365675920689185],"type":"VEC3"},{"bufferView":0,"byteOffset":50724,"componentType":5126,"count":52,"max":[0.007149999999999998,-0.00239378221735089,0.013634324079310816],"min":[0.0028499999999999997,-0.00239378221735089,0.009365675920689185],"type":"VEC3"},{"bufferView":0,"byteOffset":51348,"componentType":5126,"count":54,"max":[0.007067,-0.00239378221735089,0.013551929242760679],"min":[0.002933,-0.012567,0.009448070757239321],"type":"VEC3"},{"bufferView":0,"byteOffset":51996,"componentType":5126,"count":54,"max":[0.0075,-0.012567,0.013981772185245137],"min":[0.0025,-0.013000000000000001,0.009018227814754866],"type":"VEC3"},{"bufferView":0,"byteOffset":52644,"componentType":5126,"count":56,"max":[0.063,0.013000000000000001,0.0155],"min":[0.055,0.0085,0.0075],"type":"VEC3"},{"bufferView":0,"byteOffset":53316,"componentType":5126,"count":52,"max":[0.063,0.0085,0.015470835496392218],"min":[0.055,0.0085,0.0075291645036077845],"type":"VEC3"},{"bufferView":0,"byteOffset":53940,"componentType":5126,"count":54,"max":[0.06115000000000001,0.0085,0.013634324079310816],"min":[0.05685,-0.00239378221735089,0.009365675920689185],"type":"VEC3"},{"bufferView":0,"byteOffset":54588,"componentType":5126,"count":52,"max":[0.06115000000000001,-0.00239378221735089,0.013634324079310816],"min":[0.05685,-0.00239378221735089,0.009365675920689185],"type":"VEC3"},{"bufferView":0,"byteOffset":55212,"componentType":5126,"count":54,"max":[0.06106700000000001,-0.00239378221735089,0.013551929242760679],"min":[0.05693299999999999,-0.012567,0.009448070757239321],"type":"VEC3"},{"bufferView":0,"byteOffset":55860,"componentType":5126,"count":54,"max":[0.0615,-0.012567,0.013981772185245137],"min":[0.0565,-0.013000000000000001,0.009018227814754866],"type":"VEC3"},{"bufferView":0,"byteOffset":56508,"componentType":5126,"count":56,"max":[0.063,0.013000000000000001,-0.0075],"min":[0.055,0.0085,-0.0155],"type":"VEC3"},{"bufferView":0,"byteOffset":57180,"componentType":5126,"count":52,"max":[0.063,0.0085,-0.007529164503607783],"min":[0.055,0.0085,-0.015470835496392216],"type":"VEC3"},{"bufferView":0,"byteOffset":57804,"componentType":5126,"count":54,"max":[0.06115000000000001,0.0085,-0.009365675920689183],"min":[0.05685,-0.00239378221735089,-0.013634324079310815],"type":"VEC3"},{"bufferView":0,"byteOffset":58452,"componentType":5126,"count":52,"max":[0.06115000000000001,-0.00239378221735089,-0.009365675920689183],"min":[0.05685,-0.00239378221735089,-0.013634324079310815],"type":"VEC3"},{"bufferView":0,"byteOffset":59076,"componentType":5126,"count":54,"max":[0.06106700000000001,-0.00239378221735089,-0.009448070757239321],"min":[0.05693299999999999,-0.012567,-0.013551929242760679],"type":"VEC3"},{"bufferView":0,"byteOffset":59724,"componentType":5126,"count":54,"max":[0.0615,-0.012567,-0.009018227814754864],"min":[0.0565,-0.013000000000000001,-0.013981772185245135],"type":"VEC3"},{"bufferView":1,"byteOffset":0,"componentType":5126,"count":7,"type":"VEC3"},{"bufferView":1,"byteOffset":84,"componentType":5126,"count":10,"type":"VEC3"},{"bufferView":1,"byteOffset":204,"componentType":5126,"count":7,"type":"VEC3"},{"bufferView":1,"byteOffset":288,"componentType":5126,"count":10,"type":"VEC3"},{"bufferView":1,"byteOffset":408,"componentType":5126,"count":10,"type":"VEC3"},{"bufferView":1,"byteOffset":528,"componentType":5126,"count":7,"type":"VEC3"},{"bufferView":1,"byteOffset":612,"componentType":5126,"count":10,"type":"VEC3"},{"bufferView":1,"byteOffset":732,"componentType":5126,"count":7,"type":"VEC3"},{"bufferView":1,"byteOffset":816,"componentType":5126,"count":4,"type":"VEC3"},{"bufferView":1,"byteOffset":864,"componentType":5126,"count":18,"type":"VEC3"},{"bufferView":1,"byteOffset":1080,"componentType":5126,"count":7,"type":"VEC3"},{"bufferView":1,"byteOffset":1164,"componentType":5126,"count":7,"type":"VEC3"},{"bufferView":1,"byteOffset":1248,"componentType":5126,"count":70,"type":"VEC3"},{"bufferView":1,"byteOffset":2088,"componentType":5126,"count":56,"type":"VEC3"},{"bufferView":1,"byteOffset":2760,"componentType":5126,"count":4,"type":"VEC3"},{"bufferView":1,"byteOffset":2808,"componentType":5126,"count":4,"type":"VEC3"},{"bufferView":1,"byteOffset":2856,"componentType":5126,"count":4,"type":"VEC3"},{"bufferView":1,"byteOffset":2904,"componentType":5126,"count":4,"type":"VEC3"},{"bufferView":1,"byteOffset":2952,"componentType":5126,"count":56,"type":"VEC3"},{"bufferView":1,"byteOffset":3624,"componentType":5126,"count":4,"type":"VEC3"},{"bufferView":1,"byteOffset":3672,"componentType":5126,"count":4,"type":"VEC3"},{"bufferView":1,"byteOffset":3720,"componentType":5126,"count":4,"type":"VEC3"},{"bufferView":1,"byteOffset":3768,"componentType":5126,"count":4,"type":"VEC3"},{"bufferView":1,"byteOffset":3816,"componentType":5126,"count":56,"type":"VEC3"},{"bufferView":1,"byteOffset":4488,"componentType":5126,"count":4,"type":"VEC3"},{"bufferView":1,"byteOffset":4536,"componentType":5126,"count":4,"type":"VEC3"},{"bufferView":1,"byteOffset":4584,"componentType":5126,"count":8,"type":"VEC3"},{"bufferView":1,"byteOffset":4680,"componentType":5126,"count":4,"type":"VEC3"},{"bufferView":1,"byteOffset":4728,"componentType":5126,"count":16,"type":"VEC3"},{"bufferView":1,"byteOffset":4920,"componentType":5126,"count":4,"type":"VEC3"},{"bufferView":1,"byteOffset":4968,"componentType":5126,"count":16,"type":"VEC3"},{"bufferView":1,"byteOffset":5160,"componentType":5126,"count":4,"type":"VEC3"},{"bufferView":1,"byteOffset":5208,"componentType":5126,"count":8,"type":"VEC3"},{"bufferView":1,"byteOffset":5304,"componentType":5126,"count":4,"type":"VEC3"},{"bufferView":1,"byteOffset":5352,"componentType":5126,"count":8,"type":"VEC3"},{"bufferView":1,"byteOffset":5448,"componentType":5126,"count":4,"type":"VEC3"},{"bufferView":1,"byteOffset":5496,"componentType":5126,"count":16,"type":"VEC3"},{"bufferView":1,"byteOffset":5688,"componentType":5126,"count":4,"type":"VEC3"},{"bufferView":1,"byteOffset":5736,"componentType":5126,"count":16,"type":"VEC3"},{"bufferView":1,"byteOffset":5928,"componentType":5126,"count":4,"type":"VEC3"},{"bufferView":1,"byteOffset":5976,"componentType":5126,"count":8,"type":"VEC3"},{"bufferView":1,"byteOffset":6072,"componentType":5126,"count":4,"type":"VEC3"},{"bufferView":1,"byteOffset":6120,"componentType":5126,"count":4,"type":"VEC3"},{"bufferView":1,"byteOffset":6168,"componentType":5126,"count":56,"type":"VEC3"},{"bufferView":1,"byteOffset":6840,"componentType":5126,"count":4,"type":"VEC3"},{"bufferView":1,"byteOffset":6888,"componentType":5126,"count":4,"type":"VEC3"},{"bufferView":1,"byteOffset":6936,"componentType":5126,"count":4,"type":"VEC3"},{"bufferView":1,"byteOffset":6984,"componentType":5126,"count":4,"type":"VEC3"},{"bufferView":1,"byteOffset":7032,"componentType":5126,"count":56,"type":"VEC3"},{"bufferView":1,"byteOffset":7704,"componentType":5126,"count":4,"type":"VEC3"},{"bufferView":1,"byteOffset":7752,"componentType":5126,"count":4,"type":"VEC3"},{"bufferView":1,"byteOffset":7800,"componentType":5126,"count":4,"type":"VEC3"},{"bufferView":1,"byteOffset":7848,"componentType":5126,"count":4,"type":"VEC3"},{"bufferView":1,"byteOffset":7896,"componentType":5126,"count":4,"type":"VEC3"},{"bufferView":1,"byteOffset":7944,"componentType":5126,"count":18,"type":"VEC3"},{"bufferView":1,"byteOffset":8160,"componentType":5126,"count":7,"type":"VEC3"},{"bufferView":1,"byteOffset":8244,"componentType":5126,"count":7,"type":"VEC3"},{"bufferView":1,"byteOffset":8328,"componentType":5126,"count":18,"type":"VEC3"},{"bufferView":1,"byteOffset":8544,"componentType":5126,"count":4,"type":"VEC3"},{"bufferView":1,"byteOffset":8592,"componentType":5126,"count":4,"type":"VEC3"},{"bufferView":1,"byteOffset":8640,"componentType":5126,"count":8,"type":"VEC3"},{"bufferView":1,"byteOffset":8736,"componentType":5126,"count":4,"type":"VEC3"},{"bufferView":1,"byteOffset":8784,"componentType":5126,"count":16,"type":"VEC3"},{"bufferView":1,"byteOffset":8976,"componentType":5126,"count":4,"type":"VEC3"},{"bufferView":1,"byteOffset":9024,"componentType":5126,"count":16,"type":"VEC3"},{"bufferView":1,"byteOffset":9216,"componentType":5126,"count":4,"type":"VEC3"},{"bufferView":1,"byteOffset":9264,"componentType":5126,"count":8,"type":"VEC3"},{"bufferView":1,"byteOffset":9360,"componentType":5126,"count":4,"type":"VEC3"},{"bufferView":1,"byteOffset":9408,"componentType":5126,"count":8,"type":"VEC3"},{"bufferView":1,"byteOffset":9504,"componentType":5126,"count":4,"type":"VEC3"},{"bufferView":1,"byteOffset":9552,"componentType":5126,"count":16,"type":"VEC3"},{"bufferView":1,"byteOffset":9744,"componentType":5126,"count":4,"type":"VEC3"},{"bufferView":1,"byteOffset":9792,"componentType":5126,"count":16,"type":"VEC3"},{"bufferView":1,"byteOffset":9984,"componentType":5126,"count":4,"type":"VEC3"},{"bufferView":1,"byteOffset":10032,"componentType":5126,"count":8,"type":"VEC3"},{"bufferView":1,"byteOffset":10128,"componentType":5126,"count":4,"type":"VEC3"},{"bufferView":1,"byteOffset":10176,"componentType":5126,"count":314,"type":"VEC3"},{"bufferView":1,"byteOffset":13944,"componentType":5126,"count":210,"type":"VEC3"},{"bufferView":1,"byteOffset":16464,"componentType":5126,"count":54,"type":"VEC3"},{"bufferView":1,"byteOffset":17112,"componentType":5126,"count":54,"type":"VEC3"},{"bufferView":1,"byteOffset":17760,"componentType":5126,"count":54,"type":"VEC3"},{"bufferView":1,"byteOffset":18408,"componentType":5126,"count":54,"type":"VEC3"},{"bufferView":1,"byteOffset":19056,"componentType":5126,"count":54,"type":"VEC3"},{"bufferView":1,"byteOffset":19704,"componentType":5126,"count":54,"type":"VEC3"},{"bufferView":1,"byteOffset":20352,"componentType":5126,"count":54,"type":"VEC3"},{"bufferView":1,"byteOffset":21000,"componentType":5126,"count":54,"type":"VEC3"},{"bufferView":1,"byteOffset":21648,"componentType":5126,"count":57,"type":"VEC3"},{"bufferView":1,"byteOffset":22332,"componentType":5126,"count":54,"type":"VEC3"},{"bufferView":1,"byteOffset":22980,"componentType":5126,"count":54,"type":"VEC3"},{"bufferView":1,"byteOffset":23628,"componentType":5126,"count":57,"type":"VEC3"},{"bufferView":1,"byteOffset":24312,"componentType":5126,"count":54,"type":"VEC3"},{"bufferView":1,"byteOffset":24960,"componentType":5126,"count":54,"type":"VEC3"},{"bufferView":1,"byteOffset":25608,"componentType":5126,"count":57,"type":"VEC3"},{"bufferView":1,"byteOffset":26292,"componentType":5126,"count":54,"type":"VEC3"},{"bufferView":1,"byteOffset":26940,"componentType":5126,"count":54,"type":"VEC3"},{"bufferView":1,"byteOffset":27588,"componentType":5126,"count":57,"type":"VEC3"},{"bufferView":1,"byteOffset":28272,"componentType":5126,"count":26,"type":"VEC3"},{"bufferView":1,"byteOffset":28584,"componentType":5126,"count":54,"type":"VEC3"},{"bufferView":1,"byteOffset":29232,"componentType":5126,"count":54,"type":"VEC3"},{"bufferView":1,"byteOffset":29880,"componentType":5126,"count":26,"type":"VEC3"},{"bufferView":1,"byteOffset":30192,"componentType":5126,"count":54,"type":"VEC3"},{"bufferView":1,"byteOffset":30840,"componentType":5126,"count":54,"type":"VEC3"},{"bufferView":1,"byteOffset":31488,"componentType":5126,"count":54,"type":"VEC3"},{"bufferView":1,"byteOffset":32136,"componentType":5126,"count":26,"type":"VEC3"},{"bufferView":1,"byteOffset":32448,"componentType":5126,"count":26,"type":"VEC3"},{"bufferView":1,"byteOffset":32760,"componentType":5126,"count":54,"type":"VEC3"},{"bufferView":1,"byteOffset":33408,"componentType":5126,"count":54,"type":"VEC3"},{"bufferView":1,"byteOffset":34056,"componentType":5126,"count":26,"type":"VEC3"},{"bufferView":1,"byteOffset":34368,"componentType":5126,"count":54,"type":"VEC3"},{"bufferView":1,"byteOffset":35016,"componentType":5126,"count":54,"type":"VEC3"},{"bufferView":1,"byteOffset":35664,"componentType":5126,"count":57,"type":"VEC3"},{"bufferView":1,"byteOffset":36348,"componentType":5126,"count":54,"type":"VEC3"},{"bufferView":1,"byteOffset":36996,"componentType":5126,"count":57,"type":"VEC3"},{"bufferView":1,"byteOffset":37680,"componentType":5126,"count":54,"type":"VEC3"},{"bufferView":1,"byteOffset":38328,"componentType":5126,"count":54,"type":"VEC3"},{"bufferView":1,"byteOffset":38976,"componentType":5126,"count":57,"type":"VEC3"},{"bufferView":1,"byteOffset":39660,"componentType":5126,"count":54,"type":"VEC3"},{"bufferView":1,"byteOffset":40308,"componentType":5126,"count":54,"type":"VEC3"},{"bufferView":1,"byteOffset":40956,"componentType":5126,"count":57,"type":"VEC3"},{"bufferView":1,"byteOffset":41640,"componentType":5126,"count":54,"type":"VEC3"},{"bufferView":1,"byteOffset":42288,"componentType":5126,"count":54,"type":"VEC3"},{"bufferView":1,"byteOffset":42936,"componentType":5126,"count":57,"type":"VEC3"},{"bufferView":1,"byteOffset":43620,"componentType":5126,"count":54,"type":"VEC3"},{"bufferView":1,"byteOffset":44268,"componentType":5126,"count":54,"type":"VEC3"},{"bufferView":1,"byteOffset":44916,"componentType":5126,"count":56,"type":"VEC3"},{"bufferView":1,"byteOffset":45588,"componentType":5126,"count":52,"type":"VEC3"},{"bufferView":1,"byteOffset":46212,"componentType":5126,"count":54,"type":"VEC3"},{"bufferView":1,"byteOffset":46860,"componentType":5126,"count":52,"type":"VEC3"},{"bufferView":1,"byteOffset":47484,"componentType":5126,"count":54,"type":"VEC3"},{"bufferView":1,"byteOffset":48132,"componentType":5126,"count":54,"type":"VEC3"},{"bufferView":1,"byteOffset":48780,"componentType":5126,"count":56,"type":"VEC3"},{"bufferView":1,"byteOffset":49452,"componentType":5126,"count":52,"type":"VEC3"},{"bufferView":1,"byteOffset":50076,"componentType":5126,"count":54,"type":"VEC3"},{"bufferView":1,"byteOffset":50724,"componentType":5126,"count":52,"type":"VEC3"},{"bufferView":1,"byteOffset":51348,"componentType":5126,"count":54,"type":"VEC3"},{"bufferView":1,"byteOffset":51996,"componentType":5126,"count":54,"type":"VEC3"},{"bufferView":1,"byteOffset":52644,"componentType":5126,"count":56,"type":"VEC3"},{"bufferView":1,"byteOffset":53316,"componentType":5126,"count":52,"type":"VEC3"},{"bufferView":1,"byteOffset":53940,"componentType":5126,"count":54,"type":"VEC3"},{"bufferView":1,"byteOffset":54588,"componentType":5126,"count":52,"type":"VEC3"},{"bufferView":1,"byteOffset":55212,"componentType":5126,"count":54,"type":"VEC3"},{"bufferView":1,"byteOffset":55860,"componentType":5126,"count":54,"type":"VEC3"},{"bufferView":1,"byteOffset":56508,"componentType":5126,"count":56,"type":"VEC3"},{"bufferView":1,"byteOffset":57180,"componentType":5126,"count":52,"type":"VEC3"},{"bufferView":1,"byteOffset":57804,"componentType":5126,"count":54,"type":"VEC3"},{"bufferView":1,"byteOffset":58452,"componentType":5126,"count":52,"type":"VEC3"},{"bufferView":1,"byteOffset":59076,"componentType":5126,"count":54,"type":"VEC3"},{"bufferView":1,"byteOffset":59724,"componentType":5126,"count":54,"type":"VEC3"},{"bufferView":2,"byteOffset":0,"componentType":5123,"count":15,"type":"SCALAR"},{"bufferView":2,"byteOffset":32,"componentType":5123,"count":24,"type":"SCALAR"},{"bufferView":2,"byteOffset":80,"componentType":5123,"count":15,"type":"SCALAR"},{"bufferView":2,"byteOffset":112,"componentType":5123,"count":24,"type":"SCALAR"},{"bufferView":2,"byteOffset":160,"componentType":5123,"count":24,"type":"SCALAR"},{"bufferView":2,"byteOffset":208,"componentType":5123,"count":15,"type":"SCALAR"},{"bufferView":2,"byteOffset":240,"componentType":5123,"count":24,"type":"SCALAR"},{"bufferView":2,"byteOffset":288,"componentType":5123,"count":15,"type":"SCALAR"},{"bufferView":2,"byteOffset":320,"componentType":5123,"count":6,"type":"SCALAR"},{"bufferView":2,"byteOffset":332,"componentType":5123,"count":48,"type":"SCALAR"},{"bufferView":2,"byteOffset":428,"componentType":5123,"count":15,"type":"SCALAR"},{"bufferView":2,"byteOffset":460,"componentType":5123,"count":15,"type":"SCALAR"},{"bufferView":2,"byteOffset":492,"componentType":5123,"count":216,"type":"SCALAR"},{"bufferView":2,"byteOffset":924,"componentType":5123,"count":174,"type":"SCALAR"},{"bufferView":2,"byteOffset":1272,"componentType":5123,"count":6,"type":"SCALAR"},{"bufferView":2,"byteOffset":1284,"componentType":5123,"count":6,"type":"SCALAR"},{"bufferView":2,"byteOffset":1296,"componentType":5123,"count":6,"type":"SCALAR"},{"bufferView":2,"byteOffset":1308,"componentType":5123,"count":6,"type":"SCALAR"},{"bufferView":2,"byteOffset":1320,"componentType":5123,"count":174,"type":"SCALAR"},{"bufferView":2,"byteOffset":1668,"componentType":5123,"count":6,"type":"SCALAR"},{"bufferView":2,"byteOffset":1680,"componentType":5123,"count":6,"type":"SCALAR"},{"bufferView":2,"byteOffset":1692,"componentType":5123,"count":6,"type":"SCALAR"},{"bufferView":2,"byteOffset":1704,"componentType":5123,"count":6,"type":"SCALAR"},{"bufferView":2,"byteOffset":1716,"componentType":5123,"count":174,"type":"SCALAR"},{"bufferView":2,"byteOffset":2064,"componentType":5123,"count":6,"type":"SCALAR"},{"bufferView":2,"byteOffset":2076,"componentType":5123,"count":6,"type":"SCALAR"},{"bufferView":2,"byteOffset":2088,"componentType":5123,"count":18,"type":"SCALAR"},{"bufferView":2,"byteOffset":2124,"componentType":5123,"count":6,"type":"SCALAR"},{"bufferView":2,"byteOffset":2136,"componentType":5123,"count":42,"type":"SCALAR"},{"bufferView":2,"byteOffset":2220,"componentType":5123,"count":6,"type":"SCALAR"},{"bufferView":2,"byteOffset":2232,"componentType":5123,"count":42,"type":"SCALAR"},{"bufferView":2,"byteOffset":2316,"componentType":5123,"count":6,"type":"SCALAR"},{"bufferView":2,"byteOffset":2328,"componentType":5123,"count":18,"type":"SCALAR"},{"bufferView":2,"byteOffset":2364,"componentType":5123,"count":6,"type":"SCALAR"},{"bufferView":2,"byteOffset":2376,"componentType":5123,"count":18,"type":"SCALAR"},{"bufferView":2,"byteOffset":2412,"componentType":5123,"count":6,"type":"SCALAR"},{"bufferView":2,"byteOffset":2424,"componentType":5123,"count":42,"type":"SCALAR"},{"bufferView":2,"byteOffset":2508,"componentType":5123,"count":6,"type":"SCALAR"},{"bufferView":2,"byteOffset":2520,"componentType":5123,"count":42,"type":"SCALAR"},{"bufferView":2,"byteOffset":2604,"componentType":5123,"count":6,"type":"SCALAR"},{"bufferView":2,"byteOffset":2616,"componentType":5123,"count":18,"type":"SCALAR"},{"bufferView":2,"byteOffset":2652,"componentType":5123,"count":6,"type":"SCALAR"},{"bufferView":2,"byteOffset":2664,"componentType":5123,"count":6,"type":"SCALAR"},{"bufferView":2,"byteOffset":2676,"componentType":5123,"count":174,"type":"SCALAR"},{"bufferView":2,"byteOffset":3024,"componentType":5123,"count":6,"type":"SCALAR"},{"bufferView":2,"byteOffset":3036,"componentType":5123,"count":6,"type":"SCALAR"},{"bufferView":2,"byteOffset":3048,"componentType":5123,"count":6,"type":"SCALAR"},{"bufferView":2,"byteOffset":3060,"componentType":5123,"count":6,"type":"SCALAR"},{"bufferView":2,"byteOffset":3072,"componentType":5123,"count":174,"type":"SCALAR"},{"bufferView":2,"byteOffset":3420,"componentType":5123,"count":6,"type":"SCALAR"},{"bufferView":2,"byteOffset":3432,"componentType":5123,"count":6,"type":"SCALAR"},{"bufferView":2,"byteOffset":3444,"componentType":5123,"count":6,"type":"SCALAR"},{"bufferView":2,"byteOffset":3456,"componentType":5123,"count":6,"type":"SCALAR"},{"bufferView":2,"byteOffset":3468,"componentType":5123,"count":6,"type":"SCALAR"},{"bufferView":2,"byteOffset":3480,"componentType":5123,"count":48,"type":"SCALAR"},{"bufferView":2,"byteOffset":3576,"componentType":5123,"count":15,"type":"SCALAR"},{"bufferView":2,"byteOffset":3608,"componentType":5123,"count":15,"type":"SCALAR"},{"bufferView":2,"byteOffset":3640,"componentType":5123,"count":48,"type":"SCALAR"},{"bufferView":2,"byteOffset":3736,"componentType":5123,"count":6,"type":"SCALAR"},{"bufferView":2,"byteOffset":3748,"componentType":5123,"count":6,"type":"SCALAR"},{"bufferView":2,"byteOffset":3760,"componentType":5123,"count":18,"type":"SCALAR"},{"bufferView":2,"byteOffset":3796,"componentType":5123,"count":6,"type":"SCALAR"},{"bufferView":2,"byteOffset":3808,"componentType":5123,"count":42,"type":"SCALAR"},{"bufferView":2,"byteOffset":3892,"componentType":5123,"count":6,"type":"SCALAR"},{"bufferView":2,"byteOffset":3904,"componentType":5123,"count":42,"type":"SCALAR"},{"bufferView":2,"byteOffset":3988,"componentType":5123,"count":6,"type":"SCALAR"},{"bufferView":2,"byteOffset":4000,"componentType":5123,"count":18,"type":"SCALAR"},{"bufferView":2,"byteOffset":4036,"componentType":5123,"count":6,"type":"SCALAR"},{"bufferView":2,"byteOffset":4048,"componentType":5123,"count":18,"type":"SCALAR"},{"bufferView":2,"byteOffset":4084,"componentType":5123,"count":6,"type":"SCALAR"},{"bufferView":2,"byteOffset":4096,"componentType":5123,"count":42,"type":"SCALAR"},{"bufferView":2,"byteOffset":4180,"componentType":5123,"count":6,"type":"SCALAR"},{"bufferView":2,"byteOffset":4192,"componentType":5123,"count":42,"type":"SCALAR"},{"bufferView":2,"byteOffset":4276,"componentType":5123,"count":6,"type":"SCALAR"},{"bufferView":2,"byteOffset":4288,"componentType":5123,"count":18,"type":"SCALAR"},{"bufferView":2,"byteOffset":4324,"componentType":5123,"count":6,"type":"SCALAR"},{"bufferView":2,"byteOffset":4336,"componentType":5123,"count":978,"type":"SCALAR"},{"bufferView":2,"byteOffset":6292,"componentType":5123,"count":642,"type":"SCALAR"},{"bufferView":2,"byteOffset":7576,"componentType":5123,"count":156,"type":"SCALAR"},{"bufferView":2,"byteOffset":7888,"componentType":5123,"count":156,"type":"SCALAR"},{"bufferView":2,"byteOffset":8200,"componentType":5123,"count":156,"type":"SCALAR"},{"bufferView":2,"byteOffset":8512,"componentType":5123,"count":156,"type":"SCALAR"},{"bufferView":2,"byteOffset":8824,"componentType":5123,"count":156,"type":"SCALAR"},{"bufferView":2,"byteOffset":9136,"componentType":5123,"count":156,"type":"SCALAR"},{"bufferView":2,"byteOffset":9448,"componentType":5123,"count":156,"type":"SCALAR"},{"bufferView":2,"byteOffset":9760,"componentType":5123,"count":156,"type":"SCALAR"},{"bufferView":2,"byteOffset":10072,"componentType":5123,"count":237,"type":"SCALAR"},{"bufferView":2,"byteOffset":10548,"componentType":5123,"count":156,"type":"SCALAR"},{"bufferView":2,"byteOffset":10860,"componentType":5123,"count":156,"type":"SCALAR"},{"bufferView":2,"byteOffset":11172,"componentType":5123,"count":237,"type":"SCALAR"},{"bufferView":2,"byteOffset":11648,"componentType":5123,"count":156,"type":"SCALAR"},{"bufferView":2,"byteOffset":11960,"componentType":5123,"count":156,"type":"SCALAR"},{"bufferView":2,"byteOffset":12272,"componentType":5123,"count":237,"type":"SCALAR"},{"bufferView":2,"byteOffset":12748,"componentType":5123,"count":156,"type":"SCALAR"},{"bufferView":2,"byteOffset":13060,"componentType":5123,"count":156,"type":"SCALAR"},{"bufferView":2,"byteOffset":13372,"componentType":5123,"count":237,"type":"SCALAR"},{"bufferView":2,"byteOffset":13848,"componentType":5123,"count":72,"type":"SCALAR"},{"bufferView":2,"byteOffset":13992,"componentType":5123,"count":156,"type":"SCALAR"},{"bufferView":2,"byteOffset":14304,"componentType":5123,"count":156,"type":"SCALAR"},{"bufferView":2,"byteOffset":14616,"componentType":5123,"count":72,"type":"SCALAR"},{"bufferView":2,"byteOffset":14760,"componentType":5123,"count":156,"type":"SCALAR"},{"bufferView":2,"byteOffset":15072,"componentType":5123,"count":156,"type":"SCALAR"},{"bufferView":2,"byteOffset":15384,"componentType":5123,"count":156,"type":"SCALAR"},{"bufferView":2,"byteOffset":15696,"componentType":5123,"count":72,"type":"SCALAR"},{"bufferView":2,"byteOffset":15840,"componentType":5123,"count":72,"type":"SCALAR"},{"bufferView":2,"byteOffset":15984,"componentType":5123,"count":156,"type":"SCALAR"},{"bufferView":2,"byteOffset":16296,"componentType":5123,"count":156,"type":"SCALAR"},{"bufferView":2,"byteOffset":16608,"componentType":5123,"count":72,"type":"SCALAR"},{"bufferView":2,"byteOffset":16752,"componentType":5123,"count":156,"type":"SCALAR"},{"bufferView":2,"byteOffset":17064,"componentType":5123,"count":156,"type":"SCALAR"},{"bufferView":2,"byteOffset":17376,"componentType":5123,"count":237,"type":"SCALAR"},{"bufferView":2,"byteOffset":17852,"componentType":5123,"count":156,"type":"SCALAR"},{"bufferView":2,"byteOffset":18164,"componentType":5123,"count":237,"type":"SCALAR"},{"bufferView":2,"byteOffset":18640,"componentType":5123,"count":156,"type":"SCALAR"},{"bufferView":2,"byteOffset":18952,"componentType":5123,"count":156,"type":"SCALAR"},{"bufferView":2,"byteOffset":19264,"componentType":5123,"count":237,"type":"SCALAR"},{"bufferView":2,"byteOffset":19740,"componentType":5123,"count":156,"type":"SCALAR"},{"bufferView":2,"byteOffset":20052,"componentType":5123,"count":156,"type":"SCALAR"},{"bufferView":2,"byteOffset":20364,"componentType":5123,"count":237,"type":"SCALAR"},{"bufferView":2,"byteOffset":20840,"componentType":5123,"count":156,"type":"SCALAR"},{"bufferView":2,"byteOffset":21152,"componentType":5123,"count":156,"type":"SCALAR"},{"bufferView":2,"byteOffset":21464,"componentType":5123,"count":237,"type":"SCALAR"},{"bufferView":2,"byteOffset":21940,"componentType":5123,"count":156,"type":"SCALAR"},{"bufferView":2,"byteOffset":22252,"componentType":5123,"count":156,"type":"SCALAR"},{"bufferView":2,"byteOffset":22564,"componentType":5123,"count":162,"type":"SCALAR"},{"bufferView":2,"byteOffset":22888,"componentType":5123,"count":156,"type":"SCALAR"},{"bufferView":2,"byteOffset":23200,"componentType":5123,"count":156,"type":"SCALAR"},{"bufferView":2,"byteOffset":23512,"componentType":5123,"count":156,"type":"SCALAR"},{"bufferView":2,"byteOffset":23824,"componentType":5123,"count":156,"type":"SCALAR"},{"bufferView":2,"byteOffset":24136,"componentType":5123,"count":156,"type":"SCALAR"},{"bufferView":2,"byteOffset":24448,"componentType":5123,"count":162,"type":"SCALAR"},{"bufferView":2,"byteOffset":24772,"componentType":5123,"count":156,"type":"SCALAR"},{"bufferView":2,"byteOffset":25084,"componentType":5123,"count":156,"type":"SCALAR"},{"bufferView":2,"byteOffset":25396,"componentType":5123,"count":156,"type":"SCALAR"},{"bufferView":2,"byteOffset":25708,"componentType":5123,"count":156,"type":"SCALAR"},{"bufferView":2,"byteOffset":26020,"componentType":5123,"count":156,"type":"SCALAR"},{"bufferView":2,"byteOffset":26332,"componentType":5123,"count":162,"type":"SCALAR"},{"bufferView":2,"byteOffset":26656,"componentType":5123,"count":156,"type":"SCALAR"},{"bufferView":2,"byteOffset":26968,"componentType":5123,"count":156,"type":"SCALAR"},{"bufferView":2,"byteOffset":27280,"componentType":5123,"count":156,"type":"SCALAR"},{"bufferView":2,"byteOffset":27592,"componentType":5123,"count":156,"type":"SCALAR"},{"bufferView":2,"byteOffset":27904,"componentType":5123,"count":156,"type":"SCALAR"},{"bufferView":2,"byteOffset":28216,"componentType":5123,"count":162,"type":"SCALAR"},{"bufferView":2,"byteOffset":28540,"componentType":5123,"count":156,"type":"SCALAR"},{"bufferView":2,"byteOffset":28852,"componentType":5123,"count":156,"type":"SCALAR"},{"bufferView":2,"byteOffset":29164,"componentType":5123,"count":156,"type":"SCALAR"},{"bufferView":2,"byteOffset":29476,"componentType":5123,"count":156,"type":"SCALAR"},{"bufferView":2,"byteOffset":29788,"componentType":5123,"count":156,"type":"SCALAR"}],"asset":{"generator":"Open CASCADE Technology 7.8 [dev.opencascade.org]","version":"2.0"},"bufferViews":[{"buffer":0,"byteLength":60372,"byteOffset":0,"byteStride":12,"target":34962},{"buffer":0,"byteLength":60372,"byteOffset":60372,"byteStride":12,"target":34962},{"buffer":0,"byteLength":30100,"byteOffset":120744,"target":34963}],"buffers":[{"byteLength":150844,"uri":"名称未設定-MGCLB12-50MGCLB12-50_b.bin"}],"materials":[{"name":"mat_0","pbrMetallicRoughness":{"baseColorFactor":[0.41788509488105774,0.4620770215988159,0.5088813304901123,1.0]},"doubleSided":true}],"meshes":[{"name":"MGCLB12-50_b","primitives":[{"attributes":{"NORMAL":148,"POSITION":0},"indices":296,"material":0,"mode":4},{"attributes":{"NORMAL":149,"POSITION":1},"indices":297,"material":0,"mode":4},{"attributes":{"NORMAL":150,"POSITION":2},"indices":298,"material":0,"mode":4},{"attributes":{"NORMAL":151,"POSITION":3},"indices":299,"material":0,"mode":4},{"attributes":{"NORMAL":152,"POSITION":4},"indices":300,"material":0,"mode":4},{"attributes":{"NORMAL":153,"POSITION":5},"indices":301,"material":0,"mode":4},{"attributes":{"NORMAL":154,"POSITION":6},"indices":302,"material":0,"mode":4},{"attributes":{"NORMAL":155,"POSITION":7},"indices":303,"material":0,"mode":4},{"attributes":{"NORMAL":156,"POSITION":8},"indices":304,"material":0,"mode":4},{"attributes":{"NORMAL":157,"POSITION":9},"indices":305,"material":0,"mode":4},{"attributes":{"NORMAL":158,"POSITION":10},"indices":306,"material":0,"mode":4},{"attributes":{"NORMAL":159,"POSITION":11},"indices":307,"material":0,"mode":4},{"attributes":{"NORMAL":160,"POSITION":12},"indices":308,"material":0,"mode":4},{"attributes":{"NORMAL":161,"POSITION":13},"indices":309,"material":0,"mode":4},{"attributes":{"NORMAL":162,"POSITION":14},"indices":310,"material":0,"mode":4},{"attributes":{"NORMAL":163,"POSITION":15},"indices":311,"material":0,"mode":4},{"attributes":{"NORMAL":164,"POSITION":16},"indices":312,"material":0,"mode":4},{"attributes":{"NORMAL":165,"POSITION":17},"indices":313,"material":0,"mode":4},{"attributes":{"NORMAL":166,"POSITION":18},"indices":314,"material":0,"mode":4},{"attributes":{"NORMAL":167,"POSITION":19},"indices":315,"material":0,"mode":4},{"attributes":{"NORMAL":168,"POSITION":20},"indices":316,"material":0,"mode":4},{"attributes":{"NORMAL":169,"POSITION":21},"indices":317,"material":0,"mode":4},{"attributes":{"NORMAL":170,"POSITION":22},"indices":318,"material":0,"mode":4},{"attributes":{"NORMAL":171,"POSITION":23},"indices":319,"material":0,"mode":4},{"attributes":{"NORMAL":172,"POSITION":24},"indices":320,"material":0,"mode":4},{"attributes":{"NORMAL":173,"POSITION":25},"indices":321,"material":0,"mode":4},{"attributes":{"NORMAL":174,"POSITION":26},"indices":322,"material":0,"mode":4},{"attributes":{"NORMAL":175,"POSITION":27},"indices":323,"material":0,"mode":4},{"attributes":{"NORMAL":176,"POSITION":28},"indices":324,"material":0,"mode":4},{"attributes":{"NORMAL":177,"POSITION":29},"indices":325,"material":0,"mode":4},{"attributes":{"NORMAL":178,"POSITION":30},"indices":326,"material":0,"mode":4},{"attributes":{"NORMAL":179,"POSITION":31},"indices":327,"material":0,"mode":4},{"attributes":{"NORMAL":180,"POSITION":32},"indices":328,"material":0,"mode":4},{"attributes":{"NORMAL":181,"POSITION":33},"indices":329,"material":0,"mode":4},{"attributes":{"NORMAL":182,"POSITION":34},"indices":330,"material":0,"mode":4},{"attributes":{"NORMAL":183,"POSITION":35},"indices":331,"material":0,"mode":4},{"attributes":{"NORMAL":184,"POSITION":36},"indices":332,"material":0,"mode":4},{"attributes":{"NORMAL":185,"POSITION":37},"indices":333,"material":0,"mode":4},{"attributes":{"NORMAL":186,"POSITION":38},"indices":334,"material":0,"mode":4},{"attributes":{"NORMAL":187,"POSITION":39},"indices":335,"material":0,"mode":4},{"attributes":{"NORMAL":188,"POSITION":40},"indices":336,"material":0,"mode":4},{"attributes":{"NORMAL":189,"POSITION":41},"indices":337,"material":0,"mode":4},{"attributes":{"NORMAL":190,"POSITION":42},"indices":338,"material":0,"mode":4},{"attributes":{"NORMAL":191,"POSITION":43},"indices":339,"material":0,"mode":4},{"attributes":{"NORMAL":192,"POSITION":44},"indices":340,"material":0,"mode":4},{"attributes":{"NORMAL":193,"POSITION":45},"indices":341,"material":0,"mode":4},{"attributes":{"NORMAL":194,"POSITION":46},"indices":342,"material":0,"mode":4},{"attributes":{"NORMAL":195,"POSITION":47},"indices":343,"material":0,"mode":4},{"attributes":{"NORMAL":196,"POSITION":48},"indices":344,"material":0,"mode":4},{"attributes":{"NORMAL":197,"POSITION":49},"indices":345,"material":0,"mode":4},{"attributes":{"NORMAL":198,"POSITION":50},"indices":346,"material":0,"mode":4},{"attributes":{"NORMAL":199,"POSITION":51},"indices":347,"material":0,"mode":4},{"attributes":{"NORMAL":200,"POSITION":52},"indices":348,"material":0,"mode":4},{"attributes":{"NORMAL":201,"POSITION":53},"indices":349,"material":0,"mode":4},{"attributes":{"NORMAL":202,"POSITION":54},"indices":350,"material":0,"mode":4},{"attributes":{"NORMAL":203,"POSITION":55},"indices":351,"material":0,"mode":4},{"attributes":{"NORMAL":204,"POSITION":56},"indices":352,"material":0,"mode":4},{"attributes":{"NORMAL":205,"POSITION":57},"indices":353,"material":0,"mode":4},{"attributes":{"NORMAL":206,"POSITION":58},"indices":354,"material":0,"mode":4},{"attributes":{"NORMAL":207,"POSITION":59},"indices":355,"material":0,"mode":4},{"attributes":{"NORMAL":208,"POSITION":60},"indices":356,"material":0,"mode":4},{"attributes":{"NORMAL":209,"POSITION":61},"indices":357,"material":0,"mode":4},{"attributes":{"NORMAL":210,"POSITION":62},"indices":358,"material":0,"mode":4},{"attributes":{"NORMAL":211,"POSITION":63},"indices":359,"material":0,"mode":4},{"attributes":{"NORMAL":212,"POSITION":64},"indices":360,"material":0,"mode":4},{"attributes":{"NORMAL":213,"POSITION":65},"indices":361,"material":0,"mode":4},{"attributes":{"NORMAL":214,"POSITION":66},"indices":362,"material":0,"mode":4},{"attributes":{"NORMAL":215,"POSITION":67},"indices":363,"material":0,"mode":4},{"attributes":{"NORMAL":216,"POSITION":68},"indices":364,"material":0,"mode":4},{"attributes":{"NORMAL":217,"POSITION":69},"indices":365,"material":0,"mode":4},{"attributes":{"NORMAL":218,"POSITION":70},"indices":366,"material":0,"mode":4},{"attributes":{"NORMAL":219,"POSITION":71},"indices":367,"material":0,"mode":4},{"attributes":{"NORMAL":220,"POSITION":72},"indices":368,"material":0,"mode":4},{"attributes":{"NORMAL":221,"POSITION":73},"indices":369,"material":0,"mode":4},{"attributes":{"NORMAL":222,"POSITION":74},"indices":370,"material":0,"mode":4},{"attributes":{"NORMAL":223,"POSITION":75},"indices":371,"material":0,"mode":4},{"attributes":{"NORMAL":224,"POSITION":76},"indices":372,"material":0,"mode":4},{"attributes":{"NORMAL":225,"POSITION":77},"indices":373,"material":0,"mode":4},{"attributes":{"NORMAL":226,"POSITION":78},"indices":374,"material":0,"mode":4},{"attributes":{"NORMAL":227,"POSITION":79},"indices":375,"material":0,"mode":4},{"attributes":{"NORMAL":228,"POSITION":80},"indices":376,"material":0,"mode":4},{"attributes":{"NORMAL":229,"POSITION":81},"indices":377,"material":0,"mode":4},{"attributes":{"NORMAL":230,"POSITION":82},"indices":378,"material":0,"mode":4},{"attributes":{"NORMAL":231,"POSITION":83},"indices":379,"material":0,"mode":4},{"attributes":{"NORMAL":232,"POSITION":84},"indices":380,"material":0,"mode":4},{"attributes":{"NORMAL":233,"POSITION":85},"indices":381,"material":0,"mode":4},{"attributes":{"NORMAL":234,"POSITION":86},"indices":382,"material":0,"mode":4},{"attributes":{"NORMAL":235,"POSITION":87},"indices":383,"material":0,"mode":4},{"attributes":{"NORMAL":236,"POSITION":88},"indices":384,"material":0,"mode":4},{"attributes":{"NORMAL":237,"POSITION":89},"indices":385,"material":0,"mode":4},{"attributes":{"NORMAL":238,"POSITION":90},"indices":386,"material":0,"mode":4},{"attributes":{"NORMAL":239,"POSITION":91},"indices":387,"material":0,"mode":4},{"attributes":{"NORMAL":240,"POSITION":92},"indices":388,"material":0,"mode":4},{"attributes":{"NORMAL":241,"POSITION":93},"indices":389,"material":0,"mode":4},{"attributes":{"NORMAL":242,"POSITION":94},"indices":390,"material":0,"mode":4},{"attributes":{"NORMAL":243,"POSITION":95},"indices":391,"material":0,"mode":4},{"attributes":{"NORMAL":244,"POSITION":96},"indices":392,"material":0,"mode":4},{"attributes":{"NORMAL":245,"POSITION":97},"indices":393,"material":0,"mode":4},{"attributes":{"NORMAL":246,"POSITION":98},"indices":394,"material":0,"mode":4},{"attributes":{"NORMAL":247,"POSITION":99},"indices":395,"material":0,"mode":4},{"attributes":{"NORMAL":248,"POSITION":100},"indices":396,"material":0,"mode":4},{"attributes":{"NORMAL":249,"POSITION":101},"indices":397,"material":0,"mode":4},{"attributes":{"NORMAL":250,"POSITION":102},"indices":398,"material":0,"mode":4},{"attributes":{"NORMAL":251,"POSITION":103},"indices":399,"material":0,"mode":4},{"attributes":{"NORMAL":252,"POSITION":104},"indices":400,"material":0,"mode":4},{"attributes":{"NORMAL":253,"POSITION":105},"indices":401,"material":0,"mode":4},{"attributes":{"NORMAL":254,"POSITION":106},"indices":402,"material":0,"mode":4},{"attributes":{"NORMAL":255,"POSITION":107},"indices":403,"material":0,"mode":4},{"attributes":{"NORMAL":256,"POSITION":108},"indices":404,"material":0,"mode":4},{"attributes":{"NORMAL":257,"POSITION":109},"indices":405,"material":0,"mode":4},{"attributes":{"NORMAL":258,"POSITION":110},"indices":406,"material":0,"mode":4},{"attributes":{"NORMAL":259,"POSITION":111},"indices":407,"material":0,"mode":4},{"attributes":{"NORMAL":260,"POSITION":112},"indices":408,"material":0,"mode":4},{"attributes":{"NORMAL":261,"POSITION":113},"indices":409,"material":0,"mode":4},{"attributes":{"NORMAL":262,"POSITION":114},"indices":410,"material":0,"mode":4},{"attributes":{"NORMAL":263,"POSITION":115},"indices":411,"material":0,"mode":4},{"attributes":{"NORMAL":264,"POSITION":116},"indices":412,"material":0,"mode":4},{"attributes":{"NORMAL":265,"POSITION":117},"indices":413,"material":0,"mode":4},{"attributes":{"NORMAL":266,"POSITION":118},"indices":414,"material":0,"mode":4},{"attributes":{"NORMAL":267,"POSITION":119},"indices":415,"material":0,"mode":4},{"attributes":{"NORMAL":268,"POSITION":120},"indices":416,"material":0,"mode":4},{"attributes":{"NORMAL":269,"POSITION":121},"indices":417,"material":0,"mode":4},{"attributes":{"NORMAL":270,"POSITION":122},"indices":418,"material":0,"mode":4},{"attributes":{"NORMAL":271,"POSITION":123},"indices":419,"material":0,"mode":4},{"attributes":{"NORMAL":272,"POSITION":124},"indices":420,"material":0,"mode":4},{"attributes":{"NORMAL":273,"POSITION":125},"indices":421,"material":0,"mode":4},{"attributes":{"NORMAL":274,"POSITION":126},"indices":422,"material":0,"mode":4},{"attributes":{"NORMAL":275,"POSITION":127},"indices":423,"material":0,"mode":4},{"attributes":{"NORMAL":276,"POSITION":128},"indices":424,"material":0,"mode":4},{"attributes":{"NORMAL":277,"POSITION":129},"indices":425,"material":0,"mode":4},{"attributes":{"NORMAL":278,"POSITION":130},"indices":426,"material":0,"mode":4},{"attributes":{"NORMAL":279,"POSITION":131},"indices":427,"material":0,"mode":4},{"attributes":{"NORMAL":280,"POSITION":132},"indices":428,"material":0,"mode":4},{"attributes":{"NORMAL":281,"POSITION":133},"indices":429,"material":0,"mode":4},{"attributes":{"NORMAL":282,"POSITION":134},"indices":430,"material":0,"mode":4},{"attributes":{"NORMAL":283,"POSITION":135},"indices":431,"material":0,"mode":4},{"attributes":{"NORMAL":284,"POSITION":136},"indices":432,"material":0,"mode":4},{"attributes":{"NORMAL":285,"POSITION":137},"indices":433,"material":0,"mode":4},{"attributes":{"NORMAL":286,"POSITION":138},"indices":434,"material":0,"mode":4},{"attributes":{"NORMAL":287,"POSITION":139},"indices":435,"material":0,"mode":4},{"attributes":{"NORMAL":288,"POSITION":140},"indices":436,"material":0,"mode":4},{"attributes":{"NORMAL":289,"POSITION":141},"indices":437,"material":0,"mode":4},{"attributes":{"NORMAL":290,"POSITION":142},"indices":438,"material":0,"mode":4},{"attributes":{"NORMAL":291,"POSITION":143},"indices":439,"material":0,"mode":4},{"attributes":{"NORMAL":292,"POSITION":144},"indices":440,"material":0,"mode":4},{"attributes":{"NORMAL":293,"POSITION":145},"indices":441,"material":0,"mode":4},{"attributes":{"NORMAL":294,"POSITION":146},"indices":442,"material":0,"mode":4},{"attributes":{"NORMAL":295,"POSITION":147},"indices":443,"material":0,"mode":4}]}],"nodes":[{"mesh":0,"name":"MGCLB12-50_b"}],"scene":0,"scenes":[{"nodes":[0]}]}